<?xml version="1.0" encoding="UTF-8" standalone="no"?>
<svg width="48px" height="48px" viewBox="0 0 48 48" version="1.1" xmlns="http://www.w3.org/2000/svg" xmlns:xlink="http://www.w3.org/1999/xlink">
    <!-- Generator: Sketch 3.7.2 (28276) - http://www.bohemiancoding.com/sketch -->
    <title>error</title>
    <desc>Created with Sketch.</desc>
    <defs></defs>
    <g id="评审2" stroke="none" stroke-width="1" fill="none" fill-rule="evenodd">
        <g id="error">
            <path d="M20.5641679,34.0177784 C20.6348789,34.1596908 20.7294653,34.2927925 20.8478385,34.4111656 C21.4377089,35.0010361 22.3837863,34.9965381 22.9700834,34.4102411 L37.8174767,19.5628478 C38.4074591,18.9728653 38.4041877,18.0263893 37.8184012,17.4406029 C37.2285308,16.8507324 36.2824534,16.8552304 35.6961563,17.4415274 L21.8662025,31.2714813 L14.4603879,25.057265 C13.8294713,24.5278631 12.8900462,24.6087284 12.353831,25.2477648 C11.8213283,25.8823768 11.897188,26.8227068 12.532025,27.3553983 L20.2058518,33.7945035 C20.3170113,33.8877774 20.4377475,33.9621074 20.5641679,34.0177784 Z" id="Combined-Shape" fill="#FFFFFF"></path>
            <circle id="Oval-14" fill="#FF5C5C" cx="24" cy="24" r="24"></circle>
            <path d="M26.0470532,23.9258843 L32.4100897,17.5628478 C33.0000722,16.9728653 32.9968007,16.0263893 32.4110143,15.4406029 C31.8211438,14.8507324 30.8750664,14.8552304 30.2887694,15.4415274 L23.9257329,21.8045639 L17.5626964,15.4415274 C16.9763993,14.8552304 16.0303219,14.8507324 15.4404515,15.4406029 C14.8546651,16.0263893 14.8513936,16.9728653 15.441376,17.5628478 L21.8044125,23.9258843 L15.441376,30.2889208 C14.8513936,30.8789032 14.8546651,31.8253792 15.4404515,32.4111656 C16.0303219,33.0010361 16.9763993,32.9965381 17.5626964,32.4102411 L23.9257329,26.0472046 L30.2887694,32.4102411 C30.8750664,32.9965381 31.8211438,33.0010361 32.4110143,32.4111656 C32.9968007,31.8253792 33.0000722,30.8789032 32.4100897,30.2889208 L26.0470532,23.9258843 Z" id="Combined-Shape" fill="#FFFFFF"></path>
        </g>
    </g>
</svg>