<?xml version="1.0" encoding="UTF-8" standalone="no"?>
<svg width="48px" height="48px" viewBox="0 0 48 48" version="1.1" xmlns="http://www.w3.org/2000/svg" xmlns:xlink="http://www.w3.org/1999/xlink">
    <!-- Generator: Sketch 3.7.2 (28276) - http://www.bohemiancoding.com/sketch -->
    <title>correct</title>
    <desc>Created with Sketch.</desc>
    <defs></defs>
    <g id="评审2" stroke="none" stroke-width="1" fill="none" fill-rule="evenodd">
        <g id="correct">
            <path d="M24,48 C37.254834,48 48,37.254834 48,24 C48,10.745166 37.254834,0 24,0 C10.745166,0 0,10.745166 0,24 C0,37.254834 10.745166,48 24,48 Z" id="Oval-14" fill="#4FD63B"></path>
            <path d="M20.5641679,34.0177784 C20.6348789,34.1596908 20.7294653,34.2927925 20.8478385,34.4111656 C21.4377089,35.0010361 22.3837863,34.9965381 22.9700834,34.4102411 L37.8174767,19.5628478 C38.4074591,18.9728653 38.4041877,18.0263893 37.8184012,17.4406029 C37.2285308,16.8507324 36.2824534,16.8552304 35.6961563,17.4415274 L21.8662025,31.2714813 L14.4603879,25.057265 C13.8294713,24.5278631 12.8900462,24.6087284 12.353831,25.2477648 C11.8213283,25.8823768 11.897188,26.8227068 12.532025,27.3553983 L20.2058518,33.7945035 C20.3170113,33.8877774 20.4377475,33.9621074 20.5641679,34.0177784 Z" id="Combined-Shape" fill="#FFFFFF"></path>
        </g>
    </g>
</svg>